<?xml version="1.0" encoding="UTF-8" standalone="no"?>
<svg
   version="1.1"
   width="16"
   height="16"
   id="svg8"
   sodipodi:docname="glabels-zoom-to-fit.svg"
   inkscape:version="1.4 (e7c3feb1, 2024-10-09)"
   xmlns:inkscape="http://www.inkscape.org/namespaces/inkscape"
   xmlns:sodipodi="http://sodipodi.sourceforge.net/DTD/sodipodi-0.dtd"
   xmlns="http://www.w3.org/2000/svg"
   xmlns:svg="http://www.w3.org/2000/svg">
  <defs
     id="defs8" />
  <sodipodi:namedview
     id="namedview8"
     pagecolor="#000000"
     bordercolor="#ffffff"
     borderopacity="0.25"
     inkscape:showpageshadow="2"
     inkscape:pageopacity="0.0"
     inkscape:pagecheckerboard="0"
     inkscape:deskcolor="#d1d1d1"
     inkscape:zoom="63.0625"
     inkscape:cx="10.664024"
     inkscape:cy="9.0465808"
     inkscape:window-width="1200"
     inkscape:window-height="1186"
     inkscape:window-x="336"
     inkscape:window-y="133"
     inkscape:window-maximized="0"
     inkscape:current-layer="svg8" />
  <path
     style="fill:#cccccc;fill-opacity:1;stroke:none"
     d="M 1,1 1,4 2,4 2,2 4,2 4,1 Z"
     id="path1" />
  <path
     style="fill:#cccccc;fill-opacity:1;stroke:none"
     d="M 12,1 12,2 14,2 14,4 15,4 15,1 Z"
     id="path2" />
  <path
     style="fill:#cccccc;fill-opacity:1;stroke:none"
     d="M 12,14 12,15 15,15 15,12 14,12 14,14 Z"
     id="path3" />
  <path
     style="fill:#cccccc;fill-opacity:1;stroke:none"
     d="M 1,12 1,15 4,15 4,14 2,14 2,12 Z"
     id="path4" />
  <path
     style="fill:#cccccc;fill-opacity:1;stroke:none"
     d="M 8,2 5,5 11,5 Z"
     id="path5" />
  <path
     style="fill:#cccccc;fill-opacity:1;stroke:none"
     d="M 2,8 5,5 5,11 Z"
     id="path6" />
  <path
     style="fill:#cccccc;fill-opacity:1;stroke:none"
     d="M 14,8 11,5 11,11 Z"
     id="path7" />
  <path
     style="fill:#cccccc;fill-opacity:1;stroke:none"
     d="M 8,14 5,11 11,11 Z"
     id="path8" />
</svg>
